<svg xmlns="http://www.w3.org/2000/svg" xmlns:xlink="http://www.w3.org/1999/xlink" width="1080" zoomAndPan="magnify" viewBox="0 0 810 809.999993" height="1080" preserveAspectRatio="xMidYMid meet" version="1.0"><rect x="-81" width="972" fill="#ffffff" y="-80.999999" height="971.999992" fill-opacity="1"/><rect x="-81" width="972" fill="#e55204" y="-80.999999" height="971.999992" fill-opacity="1"/><path fill="#f3e3bf" d="M 490.570312 481.566406 C 488.726562 481.246094 487.484375 480.390625 478.976562 473.550781 C 471.796875 467.785156 385.0625 398.296875 335.082031 358.273438 C 323.285156 348.828125 313.355469 340.769531 313.015625 340.371094 C 311.058594 338.046875 310.660156 334.84375 312.003906 332.207031 C 313.484375 329.304688 316.855469 327.703125 319.683594 328.5625 C 321.476562 329.105469 322.515625 329.851562 330.949219 336.652344 L 337.503906 341.941406 L 338.609375 341.089844 C 339.214844 340.621094 340.332031 339.96875 341.085938 339.640625 C 344.820312 338.011719 342.394531 338.074219 404.46875 338.070312 C 441.824219 338.066406 463.71875 338.191406 464.894531 338.414062 C 467.953125 338.988281 471.972656 341.238281 474.425781 343.746094 C 476.925781 346.296875 479.003906 350.285156 479.601562 353.675781 C 479.855469 355.117188 479.960938 371.472656 479.941406 405.957031 L 479.914062 456.136719 L 487.578125 462.195312 C 496.574219 469.304688 497.355469 470.027344 498.25 472.070312 C 500.363281 476.90625 495.851562 482.484375 490.566406 481.566406 Z M 454.179688 433.066406 C 430.746094 397.773438 424.082031 388.019531 422.769531 387.085938 C 420.089844 385.171875 416.476562 385.496094 414.300781 387.835938 C 413.648438 388.542969 411.789062 391.097656 410.171875 393.515625 L 407.234375 397.914062 L 432.011719 417.792969 C 445.640625 428.726562 456.898438 437.679688 457.027344 437.691406 C 457.160156 437.707031 455.878906 435.625 454.179688 433.066406 Z M 376.8125 371.136719 C 375.90625 363.183594 371.480469 358.363281 364 357.179688 C 363.195312 357.054688 361.441406 357.140625 360.101562 357.371094 C 357.988281 357.734375 357.730469 357.855469 358.15625 358.292969 C 359.105469 359.261719 376.453125 373.109375 376.746094 373.132812 C 376.910156 373.144531 376.941406 372.246094 376.8125 371.136719 Z M 345.722656 471.859375 C 338.109375 470.558594 331.554688 463.953125 330.28125 456.296875 C 330.019531 454.71875 329.9375 441.636719 330.003906 413.199219 L 330.101562 372.363281 L 352.929688 390.6875 C 365.488281 400.761719 375.894531 409.136719 376.054688 409.292969 C 376.21875 409.449219 376.21875 409.8125 376.054688 410.105469 C 375.894531 410.394531 370.355469 417.148438 363.746094 425.117188 C 349.328125 442.5 349.363281 442.453125 348.820312 444.15625 C 347.945312 446.910156 349.410156 450.347656 352.167969 452.003906 L 353.789062 452.980469 L 430.242188 453.167969 L 441.625 462.328125 C 447.890625 467.367188 453.160156 471.628906 453.339844 471.796875 C 453.65625 472.09375 347.464844 472.160156 345.722656 471.859375 Z M 345.722656 471.859375 " fill-opacity="1" fill-rule="nonzero"/></svg>